<svg xmlns="http://www.w3.org/2000/svg" viewBox="0 0 21 20" width="21" height="20">
	<style>
		tspan { white-space:pre }
		.shp0 { fill: #005bcf } 
	</style>
	<path id="icon" class="shp0" d="M0.01 2L0.01 18C0.01 19.1 0.91 20 2.01 20L18.01 20C19.11 20 20 19.1 20 18L20 2C20 0.9 19.11 0 18.01 0L2.01 0C0.91 0 0.01 0.9 0.01 2ZM17.01 18L11.01 18L11.01 11C11.01 10.45 10.56 10 10.01 10L10.01 10C9.46 10 9.01 10.45 9.01 11L9.01 18L3.01 18C2.46 18 2.01 17.55 2.01 17L2.01 3C2.01 2.45 2.46 2 3.01 2L17.01 2C17.56 2 18.01 2.45 18.01 3L18.01 17C18.01 17.55 17.56 18 17.01 18ZM11.01 6.51L11.01 6.51C11.01 7.06 10.56 7.51 10.01 7.51L10.01 7.51C9.46 7.51 9.01 7.06 9.01 6.51L9.01 6.51C9.01 5.96 9.46 5.51 10.01 5.51L10.01 5.51C10.56 5.51 11.01 5.96 11.01 6.51Z" />
</svg>