<svg xmlns="http://www.w3.org/2000/svg" viewBox="0 0 15 14" width="15" height="14">
	<style>
		tspan { white-space:pre }
		.shp0 { opacity: 0.502;fill: #ffffff } 
	</style>
	<path id="Instagram" fill-rule="evenodd" class="shp0" d="M12 13.99C11.57 13.93 3 13.99 3 13.99C2.05 13.99 1 12.94 1 11.99L1 2.99C1 2.04 2.05 0.99 3 0.99L12 0.99C12.95 0.99 14 2.04 14 2.99L14 11.99C14.03 12.94 13.1 14.02 12 13.99ZM12 1.99L10 1.99L10 3.99L12 3.99L12 1.99ZM13 5.99L12 5.99C12.07 6.3 12 6.66 12 6.99C12 9.3 9.93 11.65 7.62 11.66C5.34 11.68 3.96 10.4 3.96 8.01C3.96 7.69 4 6.52 4 5.99L2 5.99L2 11.99C2 12.29 2.71 12.99 3 12.99L12 12.99C12.29 12.99 13 12.29 13 11.99L13 5.99ZM7.62 4.62C9.21 4.62 10.5 5.91 10.5 7.49C10.5 9.09 9.21 10.38 7.62 10.38C6.03 10.38 4.74 9.09 4.74 7.49C4.74 5.91 6.03 4.62 7.62 4.62Z" />
</svg>