<svg xmlns="http://www.w3.org/2000/svg" viewBox="0 0 13 13" width="13" height="13">
	<style>
		tspan { white-space:pre }
		.shp0 { fill: #ffffff } 
	</style>
	<path id="linkedin" class="shp0" d="M4 12L1 12L1 4.2L4 4.2L4 12ZM2.46 2.96C1.65 2.96 1 2.3 1 1.48C1 0.67 1.65 0.01 2.46 0.01C3.27 0.01 3.93 0.67 3.93 1.48C3.93 2.3 3.27 2.96 2.46 2.96ZM12.99 12L10.59 12C10.59 12 10.59 8.96 10.59 7.81C10.59 6.65 10.09 6.01 9.18 6.01C8.18 6.01 7.6 6.68 7.6 7.81C7.6 9.04 7.6 12 7.6 12L5.2 12L5.2 4.2L7.6 4.2L7.6 5.08C7.6 5.08 8.35 3.76 10.04 3.76C11.74 3.76 12.99 4.8 12.99 6.94C12.99 9.08 12.99 12 12.99 12Z" />
</svg>