<svg xmlns="http://www.w3.org/2000/svg" viewBox="0 0 15 11" width="15" height="11">
	<style>
		tspan { white-space:pre }
		.shp0 { opacity: 0.502;fill: #ffffff } 
	</style>
	<path id="Twitter" class="shp0" d="M14.72,1.37c-0.49,0.22 -1.03,0.37 -1.58,0.43c0.57,-0.34 1.01,-0.88 1.21,-1.52c-0.53,0.31 -1.12,0.54 -1.75,0.67c-0.5,-0.53 -1.22,-0.87 -2.01,-0.87c-1.52,0 -2.76,1.23 -2.76,2.74c0,0.21 0.02,0.43 0.07,0.63c-2.29,-0.11 -4.32,-1.21 -5.68,-2.87c-0.24,0.4 -0.37,0.88 -0.37,1.38c0,0.95 0.49,1.79 1.23,2.29c-0.45,-0.02 -0.88,-0.14 -1.25,-0.35c0,0.01 0,0.02 0,0.03c0,1.33 0.95,2.44 2.21,2.69c-0.23,0.06 -0.47,0.1 -0.73,0.1c-0.18,0 -0.35,-0.02 -0.52,-0.05c0.35,1.09 1.37,1.88 2.58,1.9c-0.94,0.74 -2.13,1.18 -3.42,1.18c-0.22,0 -1.44,-0.01 -1.66,-0.04c1.22,0.78 3.67,1.23 5.23,1.23c5.07,0 7.84,-4.18 7.84,-7.81c0,-0.12 0,-0.24 -0.01,-0.36c0.54,-0.39 1.01,-0.87 1.38,-1.42z" />
</svg>