<svg xmlns="http://www.w3.org/2000/svg" viewBox="0 0 19 13" width="19" height="13">
	<style>
		tspan { white-space:pre }
		.shp0 { fill: #ffffff } 
	</style>
	<path id="Twitter" class="shp0" d="M18.29,1.49c-0.62,0.24 -1.28,0.4 -1.97,0.48c0.71,-0.37 1.25,-0.97 1.51,-1.67c-0.66,0.35 -1.4,0.6 -2.18,0.73c-0.63,-0.59 -1.52,-0.96 -2.51,-0.96c-1.9,0 -3.44,1.36 -3.44,3.02c0,0.24 0.03,0.47 0.09,0.69c-2.86,-0.13 -5.39,-1.33 -7.08,-3.16c-0.3,0.45 -0.47,0.97 -0.47,1.52c0,1.05 0.61,1.97 1.53,2.52c-0.56,-0.02 -1.09,-0.15 -1.56,-0.38c0,0.01 0,0.03 0,0.04c0,1.47 1.19,2.69 2.76,2.97c-0.29,0.07 -0.59,0.1 -0.91,0.1c-0.22,0 -0.44,-0.02 -0.65,-0.05c0.44,1.2 1.71,2.08 3.21,2.1c-1.18,0.81 -2.66,1.3 -4.27,1.3c-0.28,0 -1.8,-0.02 -2.07,-0.04c1.52,0.86 4.57,1.36 6.52,1.36c6.32,0 9.78,-4.61 9.78,-8.6c0,-0.13 0,-0.26 -0.01,-0.39c0.67,-0.43 1.25,-0.96 1.71,-1.57z" />
</svg>